<svg xmlns="http://www.w3.org/2000/svg" xmlns:xlink="http://www.w3.org/1999/xlink" width="653" zoomAndPan="magnify" viewBox="0 0 489.75 372.749986" height="497" preserveAspectRatio="xMidYMid meet" version="1.0"><defs><g/><clipPath id="470fdc52a0"><path d="M 0.0390625 0 L 489.460938 0 L 489.460938 372.5 L 0.0390625 372.5 Z M 0.0390625 0 " clip-rule="nonzero"/></clipPath><clipPath id="126e1ff440"><path d="M 0.0390625 2 L 489.460938 2 L 489.460938 372.5 L 0.0390625 372.5 Z M 0.0390625 2 " clip-rule="nonzero"/></clipPath></defs><g fill="#ffffff" fill-opacity="1"><g transform="translate(80.38255, 256.440847)"><g><path d="M 1.046875 0 L 19.578125 -150.1875 L 48.953125 -150.1875 L 35.5 -55.421875 L 65.734375 -150.1875 L 93.71875 -150.1875 L 79.90625 -55.421875 L 109.796875 -150.1875 L 139.53125 -150.1875 L 88.46875 0 L 52.453125 0 L 61.546875 -72.390625 L 37.765625 0 Z M 1.046875 0 "/></g></g></g><g fill="#ffffff" fill-opacity="1"><g transform="translate(202.939555, 256.440847)"><g><path d="M -10.5 0 L 24.125 -150.1875 L 54.03125 -150.1875 L 41.609375 -96.515625 L 55.765625 -96.515625 L 68.1875 -150.1875 L 98.078125 -150.1875 L 63.46875 0 L 33.5625 0 L 49.296875 -68.1875 L 35.140625 -68.1875 L 19.40625 0 Z M -10.5 0 "/></g></g></g><g fill="#ffffff" fill-opacity="1"><g transform="translate(288.257357, 256.440847)"><g><path d="M -11.890625 0 L 22.734375 -150.1875 L 51.75 -150.1875 L 17.125 0 Z M -11.890625 0 "/></g></g></g><g fill="#ffffff" fill-opacity="1"><g transform="translate(326.020852, 256.440847)"><g><path d="M 24.125 -150.1875 L 63.8125 -150.1875 C 75.820312 -150.1875 83.488281 -146.3125 86.8125 -138.5625 C 90.132812 -130.8125 90.101562 -119.476562 86.71875 -104.5625 C 83.21875 -89.632812 78.320312 -78.382812 72.03125 -70.8125 C 65.738281 -63.238281 56.707031 -59.453125 44.9375 -59.453125 L 32.6875 -59.453125 L 19.0625 0 L -10.5 0 Z M 40.734375 -86.546875 C 44.347656 -86.546875 47.144531 -87.210938 49.125 -88.546875 C 51.101562 -89.890625 52.644531 -91.816406 53.75 -94.328125 C 54.863281 -96.835938 56.003906 -100.421875 57.171875 -105.078125 C 58.566406 -111.367188 58.882812 -115.914062 58.125 -118.71875 C 57.375 -121.519531 54.898438 -122.921875 50.703125 -122.921875 L 47.375 -122.921875 L 38.984375 -86.546875 Z M 40.734375 -86.546875 "/></g></g></g><g clip-path="url(#470fdc52a0)"><path stroke-linecap="round" transform="matrix(-0.723799, -0.194581, 0.194581, -0.723799, 408.812074, 260.025895)" fill="none" stroke-linejoin="miter" d="M 27.570589 27.557863 C 147.518726 59.286412 292.558728 58.720644 462.684208 25.856878 " stroke="#0a0a0a" stroke-width="44" stroke-opacity="1" stroke-miterlimit="4"/></g><g clip-path="url(#126e1ff440)"><path stroke-linecap="round" transform="matrix(-0.723813, -0.194528, 0.194528, -0.723813, 405.576188, 254.748293)" fill="none" stroke-linejoin="miter" d="M 21.881436 21.888666 C 142.19593 53.812853 287.006554 53.367818 456.32608 20.56092 " stroke="#ffffff" stroke-width="35" stroke-opacity="1" stroke-miterlimit="4"/></g></svg>